<?xml version="1.0" standalone="no"?>
<!DOCTYPE svg PUBLIC "-//W3C//DTD SVG 20010904//EN"
 "http://www.w3.org/TR/2001/REC-SVG-20010904/DTD/svg10.dtd">
<svg version="1.0" xmlns="http://www.w3.org/2000/svg"
 width="200.000000pt" height="200.000000pt" viewBox="0 0 200.000000 200.000000"
 preserveAspectRatio="xMidYMid meet">
<metadata>
Created by potrace 1.11, written by Peter Selinger 2001-2013
</metadata>
<g transform="translate(0.000000,200.000000) scale(0.100000,-0.100000)"
fill="#000000" stroke="none">
<path d="M917 1905 c-32 -6 -59 -12 -60 -13 -9 -4 -59 -22 -63 -22 -2 0 -27
-14 -56 -32 -121 -74 -225 -220 -242 -341 -1 -10 -16 -26 -32 -36 -56 -34 -69
-126 -25 -170 19 -19 34 -92 40 -189 1 -7 11 -16 24 -21 16 -6 23 -18 25 -42
2 -19 9 -41 18 -49 13 -13 16 -13 24 0 5 8 10 12 11 8 1 -5 3 -12 4 -18 1 -5
3 -28 4 -50 1 -25 8 -46 21 -57 19 -18 19 -20 -11 -168 -16 -83 -31 -164 -33
-181 -2 -16 -6 -40 -10 -51 -4 -12 -8 -34 -11 -49 -2 -16 -13 -78 -25 -138
-12 -59 -19 -110 -16 -113 4 -4 32 -9 79 -12 5 -1 6 -17 3 -36 -4 -21 0 -50 8
-70 l15 -35 347 0 346 0 -5 42 c-3 24 -8 55 -12 71 l-7 27 58 1 c33 0 88 0
123 0 68 -1 91 9 85 37 -8 36 -53 279 -59 312 -3 19 -8 49 -12 65 -3 17 -7 37
-9 45 -5 32 -31 173 -39 210 -3 14 -8 39 -10 55 -3 17 -8 38 -11 47 -3 10 13
52 35 95 22 43 50 102 62 130 15 36 26 50 33 43 28 -22 71 6 82 53 11 47 11
177 1 216 -10 37 -62 95 -96 106 -12 3 -21 11 -21 16 0 6 -16 36 -36 67 -123
194 -336 291 -547 247z m185 -45 c122 -22 251 -111 318 -218 25 -41 27 -49 14
-63 -8 -8 -11 -19 -7 -24 5 -4 -1 -5 -12 -1 -27 8 -49 -8 -42 -30 3 -11 10
-34 16 -53 8 -27 8 -32 -1 -23 -16 16 -68 15 -68 -1 0 -7 8 -28 19 -47 10 -19
20 -61 23 -94 4 -54 2 -62 -29 -107 -18 -27 -33 -55 -33 -62 0 -21 -37 -64
-60 -70 -19 -5 -21 -2 -15 21 10 49 13 68 16 103 2 32 -6 102 -17 142 -4 11 0
17 10 17 63 0 -62 200 -165 266 -66 41 -218 64 -269 39 -14 -7 -49 -18 -79
-25 -44 -10 -65 -24 -114 -71 -34 -32 -62 -57 -64 -55 -6 5 42 111 68 151 101
156 301 239 491 205z m-27 -910 c3 -5 1 -10 -4 -10 -6 0 -11 5 -11 10 0 6 2
10 4 10 3 0 8 -4 11 -10z m-311 -56 c16 -19 27 -36 25 -37 -2 -1 -17 -9 -34
-17 -30 -16 -52 -50 -60 -93 -3 -12 -9 -23 -15 -25 -5 -2 -10 -14 -10 -27 0
-24 -39 -120 -46 -113 -2 3 5 46 16 96 21 95 32 158 33 180 0 15 3 15 30 -3
13 -8 28 -11 36 -6 11 7 10 14 -3 39 -28 55 -15 57 28 6z m106 4 c0 -13 -43
-6 -47 8 -2 7 6 10 22 7 14 -3 25 -10 25 -15z m524 -155 c10 -63 14 -84 31
-170 8 -39 17 -89 20 -110 3 -21 8 -45 11 -53 3 -8 8 -33 10 -55 3 -22 8 -47
11 -55 3 -8 7 -32 10 -52 4 -34 3 -38 -19 -39 -43 -1 -193 2 -195 5 -1 1 -4
26 -7 56 -3 30 -9 69 -14 85 -5 17 -8 86 -6 153 2 99 6 128 19 142 9 10 14 23
11 29 -7 10 86 111 102 111 5 0 13 -21 16 -47z m-753 -234 c19 -22 19 -42 0
-102 -6 -18 -13 -65 -15 -105 -3 -40 -8 -77 -11 -82 -3 -6 -20 -10 -36 -10
-24 0 -29 3 -25 18 3 9 12 53 21 97 8 44 17 89 19 100 2 11 7 39 11 63 4 23 9
42 12 42 3 0 14 -10 24 -21z"/>
</g>
</svg>
