<svg id="svg" version="1.1" width="400" height="96.37972646822203" viewBox="0 0 400 96.37972646822203" xmlns="http://www.w3.org/2000/svg" xmlns:xlink="http://www.w3.org/1999/xlink" ><g id="svgg"><path id="path0" d="M46.414 1.612 C 45.978 2.421,44.665 4.808,43.498 6.917 C 42.330 9.025,40.214 12.850,38.796 15.417 C 37.378 17.983,34.995 22.296,33.500 25.000 C 32.006 27.704,29.869 31.567,28.751 33.583 C 27.634 35.600,25.745 39.012,24.553 41.167 C 19.585 50.151,17.737 53.494,15.249 58.000 C 7.406 72.199,5.209 76.171,2.203 81.583 C 1.185 83.417,0.305 85.041,0.247 85.193 C 0.161 85.421,0.470 85.574,2.030 86.077 C 6.906 87.647,14.651 90.159,18.500 91.420 C 20.837 92.185,24.775 93.463,27.250 94.260 C 29.725 95.056,31.795 95.734,31.851 95.765 C 31.907 95.797,32.381 94.232,32.905 92.287 C 35.268 83.518,36.221 80.075,36.315 79.974 C 36.409 79.872,51.978 79.339,56.653 79.277 L 58.722 79.250 59.819 81.100 C 61.549 84.017,67.192 93.387,67.402 93.692 C 67.608 93.991,67.191 94.139,82.000 88.533 C 92.120 84.703,100.189 81.667,100.247 81.667 C 100.278 81.667,100.602 82.210,100.967 82.875 C 107.097 94.034,120.763 98.484,138.192 94.996 C 149.441 92.745,156.898 86.388,160.298 76.148 C 162.660 69.033,162.908 62.676,161.995 32.667 C 161.794 26.079,161.159 8.936,161.113 8.891 C 161.095 8.873,158.306 9.381,154.915 10.020 C 151.524 10.659,145.132 11.840,140.709 12.645 C 136.287 13.451,132.629 14.148,132.582 14.196 C 132.535 14.243,132.646 16.937,132.829 20.183 C 133.012 23.428,133.389 30.396,133.667 35.667 C 133.945 40.938,134.284 47.268,134.420 49.734 C 135.092 61.935,134.309 66.913,131.252 69.882 C 128.721 72.340,125.339 68.447,125.272 63.000 C 125.260 62.038,125.530 56.487,125.872 50.667 C 126.215 44.846,126.725 35.808,127.006 30.583 C 127.287 25.358,127.652 18.683,127.816 15.750 C 127.981 12.817,128.100 10.396,128.081 10.370 C 128.033 10.307,124.908 9.751,114.750 8.001 C 109.983 7.179,104.246 6.177,102.000 5.773 C 99.754 5.369,97.902 5.051,97.883 5.066 C 97.865 5.082,97.734 8.954,97.591 13.672 C 95.999 66.421,96.023 69.147,98.154 76.236 C 98.819 78.450,99.555 79.488,87.654 61.417 C 81.858 52.617,74.152 40.917,70.529 35.417 C 66.906 29.917,61.941 22.379,59.497 18.667 C 49.016 2.752,47.468 0.409,47.341 0.279 C 47.268 0.203,46.851 0.803,46.414 1.612 M279.000 4.682 C 249.523 7.239,233.012 8.640,228.954 8.930 C 228.058 8.994,227.292 9.098,227.253 9.161 C 227.162 9.310,226.461 33.998,226.530 34.619 L 226.583 35.088 232.750 34.472 C 236.142 34.133,239.275 33.851,239.713 33.845 L 240.510 33.833 240.415 36.458 C 240.362 37.902,240.094 47.858,239.819 58.583 C 239.544 69.308,239.219 81.721,239.098 86.167 C 238.977 90.612,238.889 94.265,238.902 94.283 C 238.934 94.326,259.802 91.812,264.770 91.167 C 266.889 90.892,268.707 90.667,268.811 90.667 C 268.951 90.667,269.000 82.921,269.000 60.750 C 269.000 32.372,269.015 30.833,269.292 30.826 C 269.988 30.809,281.498 29.390,281.577 29.312 C 281.744 29.145,284.466 4.398,284.328 4.289 C 284.285 4.255,281.887 4.432,279.000 4.682 M368.265 6.876 C 368.208 8.090,368.014 14.746,367.834 21.667 C 367.440 36.781,367.335 39.667,367.178 39.667 C 367.076 39.667,365.858 38.670,361.500 35.022 C 361.087 34.677,355.462 30.015,349.000 24.663 C 342.537 19.310,336.688 14.464,336.000 13.892 C 335.313 13.321,333.775 12.043,332.583 11.052 C 331.391 10.061,329.618 8.596,328.642 7.797 L 326.868 6.343 326.770 9.047 C 326.715 10.534,326.556 19.438,326.415 28.833 C 326.009 55.925,325.520 87.105,325.441 90.875 C 325.402 92.777,325.404 94.333,325.446 94.333 C 325.488 94.333,329.699 94.073,334.803 93.755 C 339.907 93.436,346.667 93.019,349.825 92.827 C 352.982 92.636,355.609 92.453,355.661 92.420 C 355.713 92.388,355.627 90.162,355.470 87.473 C 355.313 84.784,355.068 80.521,354.924 78.000 C 354.781 75.479,354.581 72.118,354.481 70.531 C 354.381 68.944,354.337 67.608,354.383 67.562 C 354.429 67.516,363.568 72.010,374.692 77.549 C 385.815 83.088,394.933 87.608,394.953 87.593 C 395.006 87.554,395.532 78.981,396.667 59.667 C 397.220 50.271,398.158 34.681,398.752 25.023 C 399.347 15.364,399.833 7.330,399.833 7.167 C 399.833 6.814,401.387 6.949,383.583 5.752 C 376.158 5.253,369.697 4.805,369.225 4.756 L 368.367 4.668 368.265 6.876 M198.333 4.933 C 198.012 4.970,197.000 5.080,196.083 5.176 C 176.955 7.186,164.450 19.938,165.046 36.826 C 165.431 47.725,173.904 55.810,189.528 60.186 C 196.088 62.024,198.083 63.358,198.083 65.905 C 198.083 68.115,197.117 69.127,194.084 70.095 C 188.439 71.897,182.040 70.889,172.417 66.683 C 170.950 66.042,169.701 65.570,169.641 65.634 C 169.522 65.760,167.795 70.517,165.997 75.667 C 165.373 77.454,164.144 80.920,163.265 83.368 C 161.391 88.585,161.468 88.092,162.458 88.524 C 177.656 95.149,190.032 96.574,203.473 93.246 C 220.920 88.927,230.336 76.524,228.250 60.611 C 226.605 48.059,214.400 38.891,195.477 35.990 C 190.019 35.154,189.030 34.524,189.693 32.310 C 191.263 27.070,203.292 26.922,215.828 31.990 C 217.429 32.637,218.816 33.166,218.911 33.165 C 219.006 33.165,219.853 30.146,220.793 26.457 C 221.733 22.768,223.111 17.373,223.856 14.468 C 224.600 11.562,225.168 9.078,225.118 8.946 C 224.840 8.222,216.430 6.020,211.250 5.316 C 208.866 4.991,200.072 4.731,198.333 4.933 M312.000 6.093 C 308.837 6.488,301.975 7.310,296.750 7.919 C 291.525 8.529,287.204 9.077,287.149 9.139 C 287.093 9.200,286.960 16.938,286.852 26.333 C 286.656 43.489,286.487 56.905,286.161 81.146 C 286.065 88.330,286.010 94.232,286.039 94.262 C 286.133 94.355,313.644 91.247,313.757 91.130 C 313.782 91.105,313.998 87.258,314.236 82.583 C 314.474 77.908,314.857 70.446,315.087 66.000 C 316.643 35.905,317.126 26.335,317.749 13.333 C 317.883 10.537,318.037 7.594,318.092 6.792 C 318.171 5.637,318.146 5.338,317.971 5.354 C 317.849 5.365,315.162 5.698,312.000 6.093 M49.916 48.292 C 50.262 49.277,51.437 52.477,52.527 55.403 C 53.618 58.329,54.452 60.778,54.380 60.846 C 54.309 60.914,51.850 61.393,48.917 61.910 C 41.833 63.160,42.019 63.130,41.938 63.049 C 41.867 62.978,43.523 59.103,46.197 53.083 C 46.970 51.342,47.934 49.148,48.339 48.208 C 49.238 46.120,49.153 46.116,49.916 48.292 " stroke="none" fill="#fbfbfb" fill-rule="evenodd"></path><path id="path1" d="M46.630 0.292 C 46.490 0.452,45.863 1.521,45.237 2.667 C 44.611 3.813,43.919 5.012,43.700 5.333 C 43.481 5.654,42.922 6.704,42.458 7.667 C 41.994 8.629,41.565 9.454,41.505 9.500 C 41.444 9.546,40.898 10.483,40.291 11.583 C 39.683 12.683,38.807 14.221,38.343 15.000 C 37.880 15.779,37.500 16.497,37.500 16.595 C 37.500 16.779,37.427 16.911,35.080 21.000 C 34.316 22.329,33.194 24.390,32.586 25.580 C 31.978 26.769,31.423 27.782,31.354 27.830 C 31.285 27.877,30.713 28.854,30.084 30.000 C 29.454 31.146,28.766 32.363,28.553 32.705 C 28.341 33.047,28.167 33.393,28.167 33.475 C 28.167 33.556,27.722 34.402,27.179 35.353 C 26.026 37.374,24.053 40.900,23.739 41.500 C 23.044 42.834,21.517 45.581,20.910 46.591 C 20.521 47.238,19.851 48.438,19.419 49.258 C 18.527 50.953,16.610 54.423,15.153 56.980 C 14.610 57.932,14.167 58.802,14.167 58.915 C 14.167 59.028,13.987 59.385,13.767 59.709 C 13.547 60.033,12.907 61.123,12.346 62.131 C 11.784 63.139,10.951 64.591,10.496 65.357 C 10.040 66.123,9.667 66.836,9.667 66.941 C 9.667 67.045,9.409 67.570,9.095 68.107 C 7.631 70.608,5.688 74.105,4.710 76.000 C 4.119 77.146,3.541 78.196,3.425 78.333 C 3.249 78.542,0.963 82.574,0.511 83.475 C -0.493 85.471,-0.032 85.396,1.070 83.384 C 1.613 82.394,2.970 79.933,4.086 77.917 C 5.202 75.900,7.151 72.375,8.418 70.083 C 13.607 60.695,15.056 58.077,17.043 54.500 C 18.188 52.438,19.948 49.250,20.954 47.417 C 21.960 45.583,23.366 43.033,24.079 41.750 C 24.792 40.467,26.391 37.579,27.631 35.333 C 28.872 33.087,30.803 29.600,31.922 27.583 C 34.393 23.135,37.352 17.779,41.084 11.000 C 42.624 8.204,44.596 4.642,45.466 3.083 C 46.336 1.525,47.079 0.194,47.117 0.125 C 47.254 -0.122,46.880 0.006,46.630 0.292 M47.791 0.692 C 48.063 1.091,51.323 6.029,55.033 11.667 C 58.744 17.304,66.004 28.329,71.167 36.167 C 76.329 44.004,84.525 56.454,89.379 63.833 C 98.962 78.400,98.632 77.916,98.249 76.832 C 96.502 71.883,96.043 66.865,96.321 55.750 C 96.429 51.442,96.585 45.142,96.669 41.750 C 96.915 31.743,97.718 5.089,97.775 5.017 C 97.804 4.980,98.335 5.037,98.955 5.142 C 99.576 5.248,102.483 5.740,105.417 6.236 C 114.322 7.743,128.077 10.207,128.190 10.315 C 128.249 10.371,128.194 12.217,128.067 14.417 C 124.981 68.218,125.195 63.712,125.643 65.485 C 127.318 72.110,131.646 72.102,133.562 65.470 C 134.901 60.835,134.900 60.341,133.509 35.515 C 132.855 23.836,132.379 14.222,132.452 14.150 C 132.579 14.024,146.926 11.284,150.194 10.762 C 151.079 10.620,153.792 10.128,156.223 9.669 C 161.784 8.617,161.333 8.609,161.333 9.768 C 161.333 10.282,161.407 12.514,161.497 14.726 C 162.303 34.532,162.821 59.664,162.515 64.131 C 161.107 84.694,151.649 94.353,131.167 96.149 L 129.583 96.287 131.865 96.310 C 145.223 96.445,157.014 88.297,160.895 76.250 C 162.950 69.870,163.403 59.434,162.674 35.250 C 162.368 25.116,161.831 10.284,161.737 9.389 C 161.617 8.249,161.647 8.253,158.210 8.922 C 156.582 9.240,155.060 9.500,154.828 9.500 C 154.596 9.500,153.396 9.691,152.162 9.924 C 145.372 11.208,136.454 12.908,134.417 13.307 L 132.083 13.763 132.034 14.590 C 132.008 15.045,132.520 24.792,133.173 36.250 C 134.527 60.020,134.529 60.487,133.305 65.000 C 131.599 71.289,127.673 71.596,126.065 65.565 C 125.544 63.609,125.471 65.915,126.737 44.167 C 127.247 35.412,127.898 24.168,128.185 19.179 C 128.779 8.836,128.875 9.761,127.190 9.592 C 126.267 9.499,118.957 8.221,107.083 6.076 C 100.782 4.938,97.736 4.523,97.509 4.770 C 97.435 4.851,97.138 12.867,96.850 22.583 C 95.606 64.512,95.607 67.676,96.858 73.053 C 97.315 75.017,97.325 75.024,95.328 72.055 C 94.369 70.629,93.452 69.309,93.292 69.122 C 93.131 68.935,93.000 68.715,93.000 68.633 C 93.000 68.470,90.533 64.635,90.341 64.500 C 90.163 64.374,88.505 61.875,88.379 61.541 C 88.319 61.381,87.234 59.728,85.968 57.867 C 84.702 56.006,83.667 54.431,83.667 54.366 C 83.667 54.301,83.103 53.423,82.413 52.415 C 80.542 49.681,79.000 47.353,79.000 47.264 C 79.000 47.220,78.024 45.751,76.832 43.998 C 75.640 42.245,74.541 40.573,74.390 40.281 C 74.154 39.822,73.708 39.152,71.724 36.271 C 71.527 35.985,70.292 34.100,68.980 32.083 C 67.669 30.067,66.339 28.079,66.025 27.667 C 65.712 27.254,65.375 26.729,65.278 26.500 C 65.180 26.271,64.338 24.958,63.406 23.583 C 62.475 22.208,60.742 19.583,59.555 17.750 C 58.368 15.917,57.109 14.042,56.758 13.583 C 56.406 13.125,56.036 12.560,55.934 12.327 C 55.833 12.094,54.484 9.994,52.936 7.660 C 51.389 5.326,49.626 2.667,49.020 1.750 C 48.396 0.809,47.782 0.059,47.606 0.026 C 47.342 -0.023,47.369 0.076,47.791 0.692 M278.500 4.259 C 276.254 4.472,273.029 4.728,271.333 4.826 C 266.715 5.094,226.974 8.625,226.823 8.782 C 226.454 9.163,225.894 35.470,226.252 35.607 C 226.390 35.660,229.516 35.396,233.197 35.020 C 236.879 34.643,239.901 34.354,239.912 34.376 C 239.924 34.398,239.579 47.167,239.145 62.750 C 238.213 96.237,238.239 94.641,238.625 94.789 C 238.785 94.851,241.429 94.585,244.500 94.199 C 260.169 92.228,264.599 91.688,266.552 91.511 C 267.726 91.405,268.870 91.248,269.093 91.163 L 269.500 91.008 269.500 61.208 L 269.500 31.409 275.665 30.674 C 279.056 30.269,281.915 29.886,282.020 29.821 C 282.201 29.709,282.500 27.131,284.293 10.230 C 284.644 6.920,284.903 4.126,284.868 4.022 C 284.778 3.751,283.228 3.809,278.500 4.259 M284.500 4.476 C 284.500 4.645,284.124 8.150,283.665 12.263 C 283.206 16.376,282.607 21.914,282.335 24.568 C 282.045 27.386,281.763 29.441,281.655 29.507 C 281.554 29.570,281.008 29.666,280.444 29.720 C 279.879 29.774,277.094 30.084,274.256 30.409 C 271.417 30.734,269.074 31.000,269.048 31.000 C 269.022 31.000,268.982 44.443,268.959 60.874 L 268.917 90.748 254.083 92.620 C 245.925 93.649,239.142 94.474,239.009 94.453 C 238.815 94.423,238.775 94.093,238.803 92.749 C 238.895 88.393,239.182 76.606,239.334 70.917 C 239.427 67.433,239.649 58.808,239.828 51.750 C 240.007 44.692,240.199 37.810,240.256 36.458 L 240.358 34.000 239.721 34.011 C 239.370 34.017,236.271 34.304,232.833 34.648 C 229.396 34.993,226.518 35.219,226.438 35.151 C 226.312 35.043,226.423 30.135,226.947 12.542 C 227.005 10.594,227.061 9.000,227.071 9.000 C 227.081 9.000,232.225 8.554,238.503 8.008 C 244.780 7.462,252.842 6.780,256.417 6.491 C 259.992 6.203,267.417 5.571,272.917 5.088 C 284.737 4.048,284.500 4.061,284.500 4.476 M199.333 4.430 C 199.104 4.455,197.792 4.563,196.417 4.669 C 187.913 5.326,180.464 8.337,174.242 13.633 C 173.413 14.339,172.513 15.191,172.242 15.526 C 171.971 15.861,171.173 16.846,170.467 17.714 C 169.237 19.227,167.667 21.608,167.667 21.959 C 167.667 22.051,167.369 22.717,167.005 23.438 C 163.524 30.341,163.524 40.610,167.005 45.967 C 167.369 46.527,167.667 47.054,167.667 47.138 C 167.667 48.183,174.845 55.000,175.945 55.000 C 176.027 55.000,176.505 55.266,177.006 55.592 C 179.753 57.376,184.053 59.164,188.833 60.510 C 195.981 62.523,198.214 64.153,197.502 66.837 C 197.285 67.654,195.878 69.167,195.335 69.167 C 195.174 69.167,194.714 69.283,194.313 69.426 C 188.512 71.488,182.019 70.387,171.211 65.508 C 169.149 64.578,169.355 64.355,167.646 69.362 C 166.854 71.684,165.701 74.933,165.084 76.583 C 164.467 78.233,163.568 80.783,163.085 82.250 C 162.602 83.717,161.932 85.649,161.595 86.545 C 160.869 88.477,160.798 88.307,162.715 89.219 C 170.632 92.987,181.442 95.534,189.583 95.550 C 196.598 95.563,201.927 94.576,209.667 91.828 C 212.106 90.962,213.239 90.362,216.634 88.142 C 226.845 81.463,231.057 69.892,228.002 56.917 C 227.089 53.037,223.940 48.379,220.250 45.449 C 219.425 44.793,218.713 44.209,218.667 44.150 C 218.192 43.539,209.946 39.203,207.567 38.313 C 206.261 37.824,203.313 37.000,202.871 37.000 C 202.662 37.000,201.237 36.704,199.704 36.342 C 198.171 35.980,195.979 35.532,194.833 35.347 C 191.179 34.757,190.167 34.298,190.167 33.233 C 190.167 29.399,198.090 27.679,206.833 29.614 C 209.144 30.126,214.822 32.032,217.691 33.260 C 218.880 33.769,219.090 33.815,219.298 33.606 C 219.530 33.375,222.738 21.532,223.255 19.000 C 223.396 18.313,223.879 16.362,224.329 14.667 C 225.840 8.979,225.877 8.803,225.635 8.584 C 224.916 7.932,219.168 6.139,215.476 5.416 C 213.385 5.006,212.393 4.894,207.417 4.499 C 205.619 4.357,200.391 4.312,199.333 4.430 M367.778 4.444 C 367.717 4.506,367.669 5.987,367.672 7.736 C 367.679 11.366,367.013 37.721,366.900 38.294 C 366.810 38.752,366.178 38.278,361.112 33.958 C 360.064 33.065,359.134 32.333,359.046 32.333 C 358.957 32.333,358.742 32.173,358.567 31.976 C 358.393 31.779,357.342 30.861,356.233 29.934 C 350.542 25.181,348.581 23.554,348.185 23.256 C 347.946 23.076,346.865 22.176,345.783 21.256 C 344.701 20.336,343.398 19.264,342.888 18.874 C 341.634 17.915,340.490 16.957,339.089 15.692 C 338.444 15.110,337.504 14.349,337.000 14.002 C 336.496 13.654,335.519 12.856,334.829 12.227 C 333.318 10.850,332.165 9.907,331.196 9.255 C 330.799 8.989,330.387 8.649,330.279 8.501 C 329.945 8.042,327.000 5.667,326.764 5.667 C 326.212 5.667,326.189 6.115,326.012 20.004 C 325.914 27.656,325.643 46.929,325.410 62.833 C 325.177 78.737,324.989 92.444,324.993 93.292 L 325.000 94.833 325.708 94.838 C 327.890 94.853,355.940 92.935,356.131 92.758 C 356.321 92.582,355.398 74.919,354.913 69.456 L 354.813 68.329 355.448 68.595 C 356.267 68.939,357.832 69.706,361.750 71.685 C 363.492 72.565,365.592 73.614,366.417 74.018 C 367.242 74.421,369.342 75.474,371.083 76.359 C 388.172 85.036,394.957 88.291,395.260 87.960 C 395.593 87.597,400.032 14.878,399.968 10.833 L 399.917 7.583 399.367 16.833 C 398.786 26.624,398.695 28.173,398.159 37.417 C 397.973 40.625,397.338 51.087,396.748 60.667 C 396.158 70.246,395.554 80.183,395.406 82.750 C 395.258 85.317,395.108 87.511,395.073 87.626 C 395.018 87.809,375.764 78.323,358.941 69.824 C 356.571 68.626,354.593 67.685,354.545 67.732 C 354.498 67.780,354.770 73.053,355.150 79.451 C 355.529 85.849,355.857 91.420,355.878 91.832 L 355.917 92.580 350.167 92.947 C 330.229 94.219,325.448 94.504,325.370 94.426 C 325.322 94.378,325.409 86.444,325.564 76.794 C 325.719 67.145,325.989 50.138,326.166 39.000 C 326.630 9.665,326.699 6.166,326.814 6.169 C 326.870 6.170,327.971 7.051,329.260 8.127 C 330.549 9.203,334.186 12.221,337.343 14.833 C 340.499 17.446,344.477 20.746,346.182 22.167 C 347.887 23.587,351.562 26.638,354.349 28.945 C 357.136 31.252,361.142 34.569,363.250 36.317 C 366.362 38.896,367.104 39.439,367.194 39.205 C 367.254 39.046,367.506 31.229,367.752 21.833 C 367.998 12.438,368.230 4.719,368.266 4.681 C 368.303 4.643,373.002 4.925,378.708 5.308 C 384.414 5.690,390.958 6.118,393.250 6.258 C 395.542 6.398,397.998 6.571,398.708 6.641 C 399.704 6.739,400.000 6.720,400.000 6.558 C 400.000 6.250,399.829 6.234,388.583 5.512 C 370.659 4.359,367.999 4.223,367.778 4.444 M209.417 5.004 C 215.053 5.590,220.552 6.870,225.025 8.638 L 225.466 8.812 224.727 11.614 C 224.321 13.156,223.096 17.942,222.005 22.250 C 219.758 31.122,219.217 33.172,219.091 33.298 C 219.042 33.347,217.858 32.926,216.460 32.364 C 211.487 30.364,209.119 29.633,205.250 28.906 C 198.340 27.606,191.306 28.990,189.980 31.910 C 188.981 34.108,190.032 34.944,194.791 35.738 C 209.252 38.152,219.725 43.446,224.707 50.860 C 231.438 60.877,229.378 76.461,220.217 84.835 C 209.566 94.569,190.936 97.735,173.629 92.753 C 169.283 91.502,161.501 88.512,161.500 88.093 C 161.499 87.996,161.985 86.567,162.579 84.917 C 163.173 83.267,164.455 79.667,165.427 76.917 C 168.547 68.090,169.492 65.452,169.560 65.385 C 169.596 65.349,171.191 65.987,173.104 66.802 C 182.667 70.880,188.521 71.743,194.279 69.924 C 198.801 68.495,199.501 64.570,195.583 62.613 C 193.440 61.543,192.523 61.192,189.627 60.337 C 177.366 56.717,170.396 51.929,166.692 44.583 C 163.820 38.885,164.261 29.782,167.748 22.823 C 173.222 11.898,183.896 5.827,199.500 4.766 C 201.038 4.661,207.647 4.819,209.417 5.004 M303.083 6.597 C 295.475 7.546,288.743 8.374,288.124 8.435 C 287.505 8.497,286.891 8.631,286.761 8.732 C 286.551 8.896,285.483 79.322,285.497 92.125 L 285.500 94.833 286.042 94.838 C 286.935 94.846,314.072 91.631,314.219 91.500 C 314.364 91.370,316.328 54.942,316.326 52.417 C 316.326 51.592,316.861 40.663,317.516 28.132 C 318.171 15.600,318.663 5.231,318.609 5.090 C 318.456 4.692,317.968 4.740,303.083 6.597 M318.259 6.875 C 318.123 8.867,315.412 61.659,315.004 70.250 C 314.387 83.268,313.960 91.098,313.863 91.191 C 313.665 91.379,286.114 94.514,285.965 94.365 C 285.886 94.286,285.900 88.087,285.997 80.486 C 286.093 72.931,286.242 61.200,286.330 54.417 C 286.417 47.633,286.577 34.658,286.686 25.583 C 286.794 16.508,286.906 9.055,286.935 9.021 C 286.998 8.944,292.063 8.318,303.250 7.004 C 307.925 6.455,312.950 5.863,314.417 5.688 C 315.883 5.513,317.372 5.362,317.724 5.352 L 318.364 5.333 318.259 6.875 M47.015 51.555 C 45.878 54.137,44.286 57.746,43.477 59.573 C 42.669 61.401,42.025 62.911,42.046 62.929 C 42.066 62.947,42.871 62.818,43.833 62.644 C 44.796 62.470,47.526 61.992,49.900 61.583 C 52.273 61.174,54.241 60.815,54.271 60.784 C 54.372 60.683,49.413 47.184,49.197 46.972 C 49.134 46.911,48.153 48.973,47.015 51.555 M50.164 50.489 C 50.639 51.720,51.356 53.708,51.758 54.906 C 52.159 56.103,52.782 57.833,53.141 58.750 C 53.553 59.800,53.725 60.433,53.606 60.461 C 52.944 60.615,42.741 62.446,42.705 62.417 C 42.658 62.380,43.384 60.716,44.086 59.250 C 44.995 57.353,46.372 54.211,46.533 53.667 C 46.628 53.346,47.222 51.977,47.853 50.625 C 48.484 49.274,49.002 48.074,49.005 47.959 C 49.014 47.606,49.254 48.130,50.164 50.489 M45.917 79.709 C 40.692 79.891,36.399 80.054,36.378 80.072 C 36.357 80.090,36.149 80.850,35.915 81.761 C 35.049 85.133,32.112 95.588,31.993 95.724 C 31.842 95.895,30.548 95.509,23.167 93.086 C 10.130 88.806,0.403 85.665,0.194 85.666 C -0.502 85.669,0.346 86.143,1.928 86.635 C 4.931 87.569,17.108 91.534,24.584 94.012 C 32.226 96.546,32.275 96.558,32.433 95.875 C 32.492 95.623,33.237 92.942,34.089 89.917 C 34.941 86.892,35.885 83.533,36.187 82.453 C 36.638 80.843,36.798 80.477,37.077 80.423 C 37.264 80.386,41.279 80.237,46.000 80.092 C 50.721 79.947,55.416 79.782,56.433 79.726 L 58.284 79.624 58.917 80.687 C 59.266 81.272,59.716 81.975,59.918 82.250 C 60.120 82.525,60.627 83.403,61.044 84.201 C 61.461 84.999,62.209 86.274,62.706 87.035 C 63.202 87.795,63.983 89.054,64.441 89.833 C 64.899 90.612,65.703 91.981,66.228 92.875 C 67.371 94.822,67.149 94.781,70.139 93.601 C 72.637 92.615,74.718 91.837,75.750 91.505 C 76.117 91.386,77.617 90.819,79.083 90.244 C 85.591 87.694,86.440 87.367,86.833 87.257 C 87.705 87.013,90.307 86.021,96.917 83.410 C 99.734 82.298,99.949 82.260,100.284 82.808 C 102.723 86.795,105.788 90.160,108.385 91.700 C 113.728 94.868,118.090 96.351,121.966 96.315 L 123.917 96.298 122.060 96.073 C 112.464 94.909,104.470 89.927,100.750 82.792 C 100.141 81.625,100.720 81.558,96.127 83.322 C 93.994 84.140,90.263 85.558,87.833 86.472 C 85.404 87.386,81.692 88.784,79.583 89.577 C 77.475 90.371,74.175 91.625,72.250 92.364 C 70.325 93.104,68.473 93.807,68.134 93.927 L 67.517 94.146 65.741 91.198 C 64.764 89.577,62.759 86.244,61.286 83.792 L 58.607 79.333 57.012 79.356 C 56.134 79.369,51.142 79.528,45.917 79.709 " stroke="none" fill="#0e0e0e" fill-rule="evenodd"></path><path id="path2" d="M202.125 4.789 C 202.515 4.824,203.152 4.824,203.542 4.789 C 203.931 4.754,203.612 4.725,202.833 4.725 C 202.054 4.725,201.735 4.754,202.125 4.789 M368.220 5.833 C 368.220 6.429,368.250 6.673,368.287 6.375 C 368.324 6.077,368.324 5.590,368.287 5.292 C 368.250 4.994,368.220 5.237,368.220 5.833 M386.208 5.948 C 386.369 5.990,386.631 5.990,386.792 5.948 C 386.952 5.906,386.821 5.872,386.500 5.872 C 386.179 5.872,386.048 5.906,386.208 5.948 M388.708 6.115 C 388.869 6.157,389.131 6.157,389.292 6.115 C 389.452 6.073,389.321 6.039,389.000 6.039 C 388.679 6.039,388.548 6.073,388.708 6.115 M391.042 6.282 C 391.202 6.323,391.465 6.323,391.625 6.282 C 391.785 6.240,391.654 6.205,391.333 6.205 C 391.012 6.205,390.881 6.240,391.042 6.282 M97.717 7.167 C 97.717 7.671,97.748 7.877,97.786 7.625 C 97.824 7.373,97.824 6.960,97.786 6.708 C 97.748 6.456,97.717 6.662,97.717 7.167 M326.725 7.667 C 326.725 8.446,326.754 8.765,326.789 8.375 C 326.824 7.985,326.824 7.348,326.789 6.958 C 326.754 6.569,326.725 6.888,326.725 7.667 M393.542 6.448 C 393.702 6.490,393.965 6.490,394.125 6.448 C 394.285 6.406,394.154 6.372,393.833 6.372 C 393.512 6.372,393.381 6.406,393.542 6.448 M396.042 6.615 C 396.202 6.657,396.465 6.657,396.625 6.615 C 396.785 6.573,396.654 6.539,396.333 6.539 C 396.012 6.539,395.881 6.573,396.042 6.615 M318.048 7.417 C 318.049 7.875,318.081 8.043,318.120 7.789 C 318.158 7.536,318.157 7.161,318.117 6.956 C 318.078 6.751,318.046 6.958,318.048 7.417 M398.542 6.782 C 398.702 6.823,398.965 6.823,399.125 6.782 C 399.285 6.740,399.154 6.705,398.833 6.705 C 398.512 6.705,398.381 6.740,398.542 6.782 M242.542 7.782 C 242.702 7.823,242.965 7.823,243.125 7.782 C 243.285 7.740,243.154 7.705,242.833 7.705 C 242.512 7.705,242.381 7.740,242.542 7.782 M240.708 7.948 C 240.869 7.990,241.131 7.990,241.292 7.948 C 241.452 7.906,241.321 7.872,241.000 7.872 C 240.679 7.872,240.548 7.906,240.708 7.948 M238.542 8.115 C 238.702 8.157,238.965 8.157,239.125 8.115 C 239.285 8.073,239.154 8.039,238.833 8.039 C 238.512 8.039,238.381 8.073,238.542 8.115 M236.708 8.282 C 236.869 8.323,237.131 8.323,237.292 8.282 C 237.452 8.240,237.321 8.205,237.000 8.205 C 236.679 8.205,236.548 8.240,236.708 8.282 M161.217 10.667 C 161.217 11.171,161.248 11.377,161.286 11.125 C 161.324 10.873,161.324 10.460,161.286 10.208 C 161.248 9.956,161.217 10.162,161.217 10.667 M227.057 11.250 C 227.058 11.983,227.087 12.263,227.122 11.871 C 227.157 11.479,227.157 10.879,227.121 10.537 C 227.085 10.196,227.057 10.517,227.057 11.250 M317.883 11.000 C 317.883 11.504,317.915 11.710,317.953 11.458 C 317.991 11.206,317.991 10.794,317.953 10.542 C 317.915 10.290,317.883 10.496,317.883 11.000 M368.053 11.667 C 368.053 12.262,368.084 12.506,368.121 12.208 C 368.158 11.910,368.158 11.423,368.121 11.125 C 368.084 10.827,368.053 11.071,368.053 11.667 M128.042 11.417 C 128.044 11.783,128.078 11.914,128.118 11.706 C 128.158 11.499,128.156 11.199,128.115 11.040 C 128.073 10.880,128.040 11.050,128.042 11.417 M97.552 12.750 C 97.553 13.300,97.584 13.505,97.621 13.205 C 97.658 12.906,97.657 12.456,97.619 12.205 C 97.581 11.955,97.551 12.200,97.552 12.750 M317.717 14.167 C 317.717 14.671,317.748 14.877,317.786 14.625 C 317.824 14.373,317.824 13.960,317.786 13.708 C 317.748 13.456,317.717 13.662,317.717 14.167 M127.875 14.417 C 127.877 14.783,127.911 14.914,127.951 14.706 C 127.991 14.499,127.990 14.199,127.948 14.040 C 127.906 13.880,127.874 14.050,127.875 14.417 M399.372 14.667 C 399.372 14.987,399.406 15.119,399.448 14.958 C 399.490 14.798,399.490 14.535,399.448 14.375 C 399.406 14.215,399.372 14.346,399.372 14.667 M161.383 15.167 C 161.383 15.671,161.415 15.877,161.453 15.625 C 161.491 15.373,161.491 14.960,161.453 14.708 C 161.415 14.456,161.383 14.662,161.383 15.167 M173.161 15.292 L 172.250 16.250 173.208 15.339 C 174.099 14.493,174.243 14.333,174.119 14.333 C 174.093 14.333,173.662 14.765,173.161 15.292 M286.903 18.667 C 286.903 20.454,286.928 21.185,286.958 20.292 C 286.988 19.398,286.988 17.935,286.958 17.042 C 286.928 16.148,286.903 16.879,286.903 18.667 M326.564 17.417 C 326.564 18.517,326.591 18.945,326.624 18.368 C 326.656 17.792,326.656 16.892,326.623 16.368 C 326.590 15.845,326.563 16.317,326.564 17.417 M132.545 16.333 C 132.545 16.746,132.578 16.915,132.618 16.708 C 132.657 16.502,132.657 16.165,132.618 15.958 C 132.578 15.752,132.545 15.921,132.545 16.333 M226.892 17.333 C 226.892 18.112,226.920 18.431,226.955 18.042 C 226.990 17.652,226.990 17.015,226.955 16.625 C 226.920 16.235,226.892 16.554,226.892 17.333 M127.709 17.417 C 127.711 17.783,127.745 17.914,127.785 17.706 C 127.824 17.499,127.823 17.199,127.781 17.040 C 127.739 16.880,127.707 17.050,127.709 17.417 M317.548 17.583 C 317.549 18.042,317.581 18.209,317.620 17.956 C 317.658 17.703,317.657 17.328,317.617 17.123 C 317.578 16.918,317.546 17.125,317.548 17.583 M367.887 17.833 C 367.887 18.429,367.917 18.673,367.954 18.375 C 367.991 18.077,367.991 17.590,367.954 17.292 C 367.917 16.994,367.887 17.237,367.887 17.833 M399.205 17.333 C 399.205 17.654,399.240 17.785,399.282 17.625 C 399.323 17.465,399.323 17.202,399.282 17.042 C 399.240 16.881,399.205 17.012,399.205 17.333 M97.385 18.250 C 97.386 18.800,97.417 19.005,97.454 18.705 C 97.491 18.406,97.490 17.956,97.452 17.705 C 97.414 17.455,97.384 17.700,97.385 18.250 M132.709 19.250 C 132.711 19.617,132.745 19.747,132.785 19.540 C 132.824 19.332,132.823 19.032,132.781 18.873 C 132.739 18.714,132.707 18.883,132.709 19.250 M161.550 19.500 C 161.550 20.004,161.581 20.210,161.619 19.958 C 161.658 19.706,161.658 19.294,161.619 19.042 C 161.581 18.790,161.550 18.996,161.550 19.500 M399.039 20.167 C 399.039 20.487,399.073 20.619,399.115 20.458 C 399.157 20.298,399.157 20.035,399.115 19.875 C 399.073 19.715,399.039 19.846,399.039 20.167 M127.548 20.750 C 127.549 21.208,127.581 21.376,127.620 21.123 C 127.658 20.869,127.657 20.494,127.617 20.289 C 127.578 20.084,127.546 20.292,127.548 20.750 M317.381 21.083 C 317.382 21.542,317.415 21.709,317.453 21.456 C 317.491 21.203,317.490 20.828,317.451 20.623 C 317.411 20.418,317.380 20.625,317.381 21.083 M226.726 23.083 C 226.725 23.908,226.754 24.267,226.788 23.880 C 226.823 23.493,226.824 22.818,226.789 22.380 C 226.755 21.942,226.726 22.258,226.726 23.083 M132.875 22.417 C 132.877 22.783,132.911 22.914,132.951 22.706 C 132.991 22.499,132.990 22.199,132.948 22.040 C 132.906 21.880,132.874 22.050,132.875 22.417 M398.872 22.833 C 398.872 23.154,398.906 23.285,398.948 23.125 C 398.990 22.965,398.990 22.702,398.948 22.542 C 398.906 22.381,398.872 22.512,398.872 22.833 M367.720 23.667 C 367.720 24.262,367.750 24.506,367.787 24.208 C 367.824 23.910,367.824 23.423,367.787 23.125 C 367.750 22.827,367.720 23.071,367.720 23.667 M127.381 23.583 C 127.382 24.042,127.415 24.209,127.453 23.956 C 127.491 23.703,127.490 23.328,127.451 23.123 C 127.411 22.918,127.380 23.125,127.381 23.583 M97.221 24.083 C 97.222 24.725,97.252 24.967,97.288 24.621 C 97.324 24.275,97.324 23.750,97.287 23.455 C 97.250 23.159,97.221 23.442,97.221 24.083 M161.717 24.167 C 161.717 24.671,161.748 24.877,161.786 24.625 C 161.824 24.373,161.824 23.960,161.786 23.708 C 161.748 23.456,161.717 23.662,161.717 24.167 M317.212 24.333 C 317.212 24.746,317.245 24.915,317.284 24.708 C 317.324 24.502,317.324 24.165,317.284 23.958 C 317.245 23.752,317.212 23.921,317.212 24.333 M133.045 25.333 C 133.045 25.746,133.078 25.915,133.118 25.708 C 133.157 25.502,133.157 25.165,133.118 24.958 C 133.078 24.752,133.045 24.921,133.045 25.333 M398.705 25.500 C 398.705 25.821,398.740 25.952,398.782 25.792 C 398.823 25.631,398.823 25.369,398.782 25.208 C 398.740 25.048,398.705 25.179,398.705 25.500 M127.214 26.750 C 127.216 27.208,127.248 27.376,127.286 27.123 C 127.325 26.869,127.324 26.494,127.284 26.289 C 127.244 26.084,127.213 26.292,127.214 26.750 M326.395 28.000 C 326.395 28.962,326.423 29.356,326.456 28.875 C 326.490 28.394,326.490 27.606,326.456 27.125 C 326.423 26.644,326.395 27.037,326.395 28.000 M317.042 27.750 C 317.044 28.117,317.078 28.247,317.118 28.040 C 317.158 27.832,317.156 27.532,317.115 27.373 C 317.073 27.214,317.040 27.383,317.042 27.750 M398.539 28.167 C 398.539 28.488,398.573 28.619,398.615 28.458 C 398.657 28.298,398.657 28.035,398.615 27.875 C 398.573 27.715,398.539 27.846,398.539 28.167 M133.214 28.583 C 133.216 29.042,133.248 29.209,133.286 28.956 C 133.325 28.703,133.324 28.328,133.284 28.123 C 133.244 27.918,133.213 28.125,133.214 28.583 M226.559 29.250 C 226.559 30.075,226.587 30.434,226.622 30.047 C 226.657 29.660,226.657 28.985,226.623 28.547 C 226.588 28.109,226.560 28.425,226.559 29.250 M161.885 29.083 C 161.886 29.633,161.917 29.838,161.954 29.539 C 161.991 29.239,161.990 28.789,161.952 28.539 C 161.914 28.288,161.884 28.533,161.885 29.083 M286.737 31.583 C 286.737 33.417,286.761 34.189,286.791 33.301 C 286.821 32.412,286.821 30.912,286.791 29.967 C 286.761 29.023,286.737 29.750,286.737 31.583 M97.057 29.917 C 97.058 30.650,97.087 30.929,97.122 30.537 C 97.157 30.145,97.157 29.545,97.121 29.204 C 97.085 28.863,97.057 29.183,97.057 29.917 M367.552 29.750 C 367.553 30.300,367.584 30.505,367.621 30.205 C 367.658 29.906,367.657 29.456,367.619 29.205 C 367.581 28.955,367.551 29.200,367.552 29.750 M127.048 29.750 C 127.049 30.208,127.081 30.376,127.120 30.123 C 127.158 29.869,127.157 29.494,127.117 29.289 C 127.078 29.084,127.046 29.292,127.048 29.750 M316.875 30.917 C 316.877 31.283,316.911 31.414,316.951 31.206 C 316.991 30.999,316.990 30.699,316.948 30.540 C 316.906 30.380,316.874 30.550,316.875 30.917 M398.372 31.000 C 398.372 31.321,398.406 31.452,398.448 31.292 C 398.490 31.131,398.490 30.869,398.448 30.708 C 398.406 30.548,398.372 30.679,398.372 31.000 M133.381 31.583 C 133.382 32.042,133.415 32.209,133.453 31.956 C 133.491 31.703,133.490 31.328,133.451 31.123 C 133.411 30.918,133.380 31.125,133.381 31.583 M126.881 32.917 C 126.882 33.375,126.915 33.543,126.953 33.289 C 126.991 33.036,126.990 32.661,126.951 32.456 C 126.911 32.251,126.880 32.458,126.881 32.917 M398.209 33.750 C 398.211 34.117,398.245 34.247,398.285 34.040 C 398.324 33.832,398.323 33.532,398.281 33.373 C 398.239 33.214,398.207 33.383,398.209 33.750 M162.053 34.667 C 162.053 35.262,162.084 35.506,162.121 35.208 C 162.158 34.910,162.158 34.423,162.121 34.125 C 162.084 33.827,162.053 34.071,162.053 34.667 M240.387 34.833 C 240.387 35.429,240.417 35.673,240.454 35.375 C 240.491 35.077,240.491 34.590,240.454 34.292 C 240.417 33.994,240.387 34.237,240.387 34.833 M316.705 34.333 C 316.705 34.654,316.740 34.785,316.782 34.625 C 316.823 34.465,316.823 34.202,316.782 34.042 C 316.740 33.881,316.705 34.012,316.705 34.333 M133.548 34.750 C 133.549 35.208,133.581 35.376,133.620 35.123 C 133.658 34.869,133.657 34.494,133.617 34.289 C 133.578 34.084,133.546 34.292,133.548 34.750 M96.889 35.500 C 96.889 36.188,96.919 36.469,96.955 36.125 C 96.991 35.781,96.991 35.219,96.955 34.875 C 96.919 34.531,96.889 34.813,96.889 35.500 M164.887 35.667 C 164.887 36.262,164.917 36.506,164.954 36.208 C 164.991 35.910,164.991 35.423,164.954 35.125 C 164.917 34.827,164.887 35.071,164.887 35.667 M367.387 36.000 C 367.387 36.596,367.417 36.840,367.454 36.542 C 367.491 36.244,367.491 35.756,367.454 35.458 C 367.417 35.160,367.387 35.404,367.387 36.000 M126.712 35.833 C 126.712 36.246,126.745 36.415,126.784 36.208 C 126.824 36.002,126.824 35.665,126.784 35.458 C 126.745 35.252,126.712 35.421,126.712 35.833 M398.042 36.417 C 398.044 36.783,398.078 36.914,398.118 36.706 C 398.158 36.499,398.156 36.199,398.115 36.040 C 398.073 35.880,398.040 36.050,398.042 36.417 M326.228 38.333 C 326.228 39.296,326.256 39.690,326.290 39.208 C 326.323 38.727,326.323 37.940,326.290 37.458 C 326.256 36.977,326.228 37.371,326.228 38.333 M316.539 37.500 C 316.539 37.821,316.573 37.952,316.615 37.792 C 316.657 37.631,316.657 37.369,316.615 37.208 C 316.573 37.048,316.539 37.179,316.539 37.500 M133.714 38.083 C 133.716 38.542,133.748 38.709,133.786 38.456 C 133.825 38.203,133.824 37.828,133.784 37.623 C 133.744 37.418,133.713 37.625,133.714 38.083 M126.545 39.000 C 126.545 39.412,126.578 39.581,126.618 39.375 C 126.657 39.169,126.657 38.831,126.618 38.625 C 126.578 38.419,126.545 38.587,126.545 39.000 M397.875 39.250 C 397.877 39.617,397.911 39.747,397.951 39.540 C 397.991 39.332,397.990 39.032,397.948 38.873 C 397.906 38.714,397.874 38.883,397.875 39.250 M240.228 41.083 C 240.228 42.000,240.256 42.354,240.290 41.869 C 240.324 41.385,240.323 40.635,240.289 40.203 C 240.255 39.770,240.227 40.167,240.228 41.083 M162.220 41.000 C 162.220 41.596,162.250 41.840,162.287 41.542 C 162.324 41.244,162.324 40.756,162.287 40.458 C 162.250 40.160,162.220 40.404,162.220 41.000 M133.879 41.000 C 133.879 41.412,133.911 41.581,133.951 41.375 C 133.991 41.169,133.991 40.831,133.951 40.625 C 133.911 40.419,133.879 40.587,133.879 41.000 M316.372 40.833 C 316.372 41.154,316.406 41.285,316.448 41.125 C 316.490 40.965,316.490 40.702,316.448 40.542 C 316.406 40.381,316.372 40.512,316.372 40.833 M96.728 42.500 C 96.728 43.462,96.756 43.856,96.790 43.375 C 96.823 42.894,96.823 42.106,96.790 41.625 C 96.756 41.144,96.728 41.537,96.728 42.500 M397.709 41.917 C 397.711 42.283,397.745 42.414,397.785 42.206 C 397.824 41.999,397.823 41.699,397.781 41.540 C 397.739 41.380,397.707 41.550,397.709 41.917 M126.372 42.167 C 126.372 42.487,126.406 42.619,126.448 42.458 C 126.490 42.298,126.490 42.035,126.448 41.875 C 126.406 41.715,126.372 41.846,126.372 42.167 M286.569 45.833 C 286.569 47.438,286.594 48.094,286.624 47.292 C 286.655 46.490,286.655 45.177,286.624 44.375 C 286.594 43.573,286.569 44.229,286.569 45.833 M316.209 44.083 C 316.211 44.450,316.245 44.580,316.285 44.373 C 316.324 44.166,316.323 43.866,316.281 43.706 C 316.239 43.547,316.207 43.717,316.209 44.083 M134.042 44.250 C 134.044 44.617,134.078 44.747,134.118 44.540 C 134.158 44.332,134.156 44.032,134.115 43.873 C 134.073 43.714,134.040 43.883,134.042 44.250 M397.542 44.750 C 397.544 45.117,397.578 45.247,397.618 45.040 C 397.658 44.832,397.656 44.532,397.615 44.373 C 397.573 44.214,397.540 44.383,397.542 44.750 M126.209 45.083 C 126.211 45.450,126.245 45.580,126.285 45.373 C 126.324 45.166,126.323 44.866,126.281 44.706 C 126.239 44.547,126.207 44.717,126.209 45.083 M134.212 47.167 C 134.212 47.579,134.245 47.748,134.284 47.542 C 134.324 47.335,134.324 46.998,134.284 46.792 C 134.245 46.585,134.212 46.754,134.212 47.167 M240.058 47.833 C 240.058 48.612,240.087 48.931,240.122 48.542 C 240.157 48.152,240.157 47.515,240.122 47.125 C 240.087 46.735,240.058 47.054,240.058 47.833 M162.389 47.833 C 162.389 48.521,162.419 48.802,162.455 48.458 C 162.491 48.115,162.491 47.552,162.455 47.208 C 162.419 46.865,162.389 47.146,162.389 47.833 M316.042 47.250 C 316.044 47.617,316.078 47.747,316.118 47.540 C 316.158 47.332,316.156 47.032,316.115 46.873 C 316.073 46.714,316.040 46.883,316.042 47.250 M397.375 47.417 C 397.377 47.783,397.411 47.914,397.451 47.706 C 397.491 47.499,397.490 47.199,397.448 47.040 C 397.406 46.880,397.374 47.050,397.375 47.417 M221.333 47.052 C 221.333 47.081,221.577 47.325,221.875 47.594 L 222.417 48.083 221.927 47.542 C 221.471 47.037,221.333 46.923,221.333 47.052 M326.063 49.000 C 326.063 50.054,326.090 50.485,326.123 49.958 C 326.156 49.431,326.156 48.569,326.123 48.042 C 326.090 47.515,326.063 47.946,326.063 49.000 M126.039 48.167 C 126.039 48.487,126.073 48.619,126.115 48.458 C 126.157 48.298,126.157 48.035,126.115 47.875 C 126.073 47.715,126.039 47.846,126.039 48.167 M96.564 50.083 C 96.564 51.183,96.591 51.612,96.624 51.035 C 96.656 50.459,96.656 49.559,96.623 49.035 C 96.590 48.512,96.563 48.983,96.564 50.083 M397.212 50.333 C 397.212 50.746,397.245 50.915,397.284 50.708 C 397.324 50.502,397.324 50.165,397.284 49.958 C 397.245 49.752,397.212 49.921,397.212 50.333 M134.375 50.417 C 134.377 50.783,134.411 50.914,134.451 50.706 C 134.491 50.499,134.490 50.199,134.448 50.040 C 134.406 49.880,134.374 50.050,134.375 50.417 M171.083 50.667 C 171.441 51.033,171.772 51.333,171.818 51.333 C 171.863 51.333,171.608 51.033,171.250 50.667 C 170.892 50.300,170.562 50.000,170.516 50.000 C 170.470 50.000,170.725 50.300,171.083 50.667 M315.872 50.500 C 315.872 50.821,315.906 50.952,315.948 50.792 C 315.990 50.631,315.990 50.369,315.948 50.208 C 315.906 50.048,315.872 50.179,315.872 50.500 M125.872 51.167 C 125.872 51.487,125.906 51.619,125.948 51.458 C 125.990 51.298,125.990 51.035,125.948 50.875 C 125.906 50.715,125.872 50.846,125.872 51.167 M239.892 54.000 C 239.892 54.779,239.920 55.098,239.955 54.708 C 239.990 54.319,239.990 53.681,239.955 53.292 C 239.920 52.902,239.892 53.221,239.892 54.000 M397.045 53.333 C 397.045 53.746,397.078 53.915,397.118 53.708 C 397.157 53.502,397.157 53.165,397.118 52.958 C 397.078 52.752,397.045 52.921,397.045 53.333 M134.539 53.333 C 134.539 53.654,134.573 53.785,134.615 53.625 C 134.657 53.465,134.657 53.202,134.615 53.042 C 134.573 52.881,134.539 53.012,134.539 53.333 M315.705 53.667 C 315.705 53.987,315.740 54.119,315.782 53.958 C 315.823 53.798,315.823 53.535,315.782 53.375 C 315.740 53.215,315.705 53.346,315.705 53.667 M125.705 54.167 C 125.705 54.487,125.740 54.619,125.782 54.458 C 125.823 54.298,125.823 54.035,125.782 53.875 C 125.740 53.715,125.705 53.846,125.705 54.167 M162.571 58.500 C 162.571 60.471,162.595 61.277,162.624 60.292 C 162.654 59.306,162.654 57.694,162.624 56.708 C 162.595 55.723,162.571 56.529,162.571 58.500 M396.879 56.000 C 396.879 56.413,396.911 56.581,396.951 56.375 C 396.991 56.169,396.991 55.831,396.951 55.625 C 396.911 55.419,396.879 55.587,396.879 56.000 M96.393 57.333 C 96.393 58.204,96.422 58.560,96.456 58.125 C 96.490 57.690,96.490 56.977,96.456 56.542 C 96.422 56.106,96.393 56.462,96.393 57.333 M286.402 58.667 C 286.402 60.271,286.427 60.927,286.457 60.125 C 286.488 59.323,286.488 58.010,286.457 57.208 C 286.427 56.406,286.402 57.063,286.402 58.667 M315.539 57.000 C 315.539 57.321,315.573 57.452,315.615 57.292 C 315.657 57.131,315.657 56.869,315.615 56.708 C 315.573 56.548,315.539 56.679,315.539 57.000 M325.896 59.167 C 325.896 60.221,325.923 60.652,325.956 60.125 C 325.990 59.598,325.990 58.735,325.956 58.208 C 325.923 57.681,325.896 58.112,325.896 59.167 M396.712 59.000 C 396.712 59.413,396.745 59.581,396.784 59.375 C 396.824 59.169,396.824 58.831,396.784 58.625 C 396.745 58.419,396.712 58.587,396.712 59.000 M239.725 60.500 C 239.725 61.279,239.754 61.598,239.789 61.208 C 239.824 60.819,239.824 60.181,239.789 59.792 C 239.754 59.402,239.725 59.721,239.725 60.500 M315.375 60.083 C 315.377 60.450,315.411 60.580,315.451 60.373 C 315.491 60.166,315.490 59.866,315.448 59.706 C 315.406 59.547,315.374 59.717,315.375 60.083 M396.545 61.667 C 396.545 62.079,396.578 62.248,396.618 62.042 C 396.657 61.835,396.657 61.498,396.618 61.292 C 396.578 61.085,396.545 61.254,396.545 61.667 M315.209 63.417 C 315.211 63.783,315.245 63.914,315.285 63.706 C 315.324 63.499,315.323 63.199,315.281 63.040 C 315.239 62.880,315.207 63.050,315.209 63.417 M396.375 64.583 C 396.377 64.950,396.411 65.080,396.451 64.873 C 396.491 64.666,396.490 64.366,396.448 64.206 C 396.406 64.047,396.374 64.217,396.375 64.583 M96.381 65.917 C 96.382 66.375,96.415 66.543,96.453 66.289 C 96.491 66.036,96.490 65.661,96.451 65.456 C 96.411 65.251,96.380 65.458,96.381 65.917 M239.558 66.667 C 239.558 67.446,239.587 67.765,239.622 67.375 C 239.657 66.985,239.657 66.348,239.622 65.958 C 239.587 65.569,239.558 65.887,239.558 66.667 M315.042 66.750 C 315.044 67.117,315.078 67.247,315.118 67.040 C 315.158 66.832,315.156 66.532,315.115 66.373 C 315.073 66.214,315.040 66.383,315.042 66.750 M396.209 67.250 C 396.211 67.617,396.245 67.747,396.285 67.540 C 396.324 67.332,396.323 67.032,396.281 66.873 C 396.239 66.714,396.207 66.883,396.209 67.250 M325.728 69.750 C 325.728 70.667,325.756 71.020,325.790 70.536 C 325.824 70.052,325.823 69.302,325.789 68.869 C 325.755 68.437,325.727 68.833,325.728 69.750 M354.375 68.750 C 354.377 69.117,354.411 69.247,354.451 69.040 C 354.491 68.832,354.490 68.532,354.448 68.373 C 354.406 68.214,354.374 68.383,354.375 68.750 M314.875 69.917 C 314.877 70.283,314.911 70.414,314.951 70.206 C 314.991 69.999,314.990 69.699,314.948 69.540 C 314.906 69.380,314.874 69.550,314.875 69.917 M286.235 72.500 C 286.235 74.104,286.260 74.760,286.291 73.958 C 286.321 73.156,286.321 71.844,286.291 71.042 C 286.260 70.240,286.235 70.896,286.235 72.500 M396.039 70.167 C 396.039 70.487,396.073 70.619,396.115 70.458 C 396.157 70.298,396.157 70.035,396.115 69.875 C 396.073 69.715,396.039 69.846,396.039 70.167 M189.208 70.948 C 189.369 70.990,189.631 70.990,189.792 70.948 C 189.952 70.906,189.821 70.872,189.500 70.872 C 189.179 70.872,189.048 70.906,189.208 70.948 M354.542 71.417 C 354.544 71.783,354.578 71.914,354.618 71.706 C 354.658 71.499,354.656 71.199,354.615 71.040 C 354.573 70.880,354.540 71.050,354.542 71.417 M239.390 73.083 C 239.391 73.817,239.420 74.096,239.456 73.704 C 239.491 73.312,239.490 72.712,239.454 72.371 C 239.419 72.029,239.390 72.350,239.390 73.083 M314.709 73.250 C 314.711 73.617,314.745 73.747,314.785 73.540 C 314.824 73.332,314.823 73.032,314.781 72.873 C 314.739 72.714,314.707 72.883,314.709 73.250 M354.712 74.500 C 354.712 74.912,354.745 75.081,354.784 74.875 C 354.824 74.669,354.824 74.331,354.784 74.125 C 354.745 73.919,354.712 74.087,354.712 74.500 M395.705 75.667 C 395.705 75.987,395.740 76.119,395.782 75.958 C 395.823 75.798,395.823 75.535,395.782 75.375 C 395.740 75.215,395.705 75.346,395.705 75.667 M314.545 76.333 C 314.545 76.746,314.578 76.915,314.618 76.708 C 314.657 76.502,314.657 76.165,314.618 75.958 C 314.578 75.752,314.545 75.921,314.545 76.333 M354.879 77.167 C 354.879 77.579,354.911 77.748,354.951 77.542 C 354.991 77.335,354.991 76.998,354.951 76.792 C 354.911 76.585,354.879 76.754,354.879 77.167 M239.225 79.167 C 239.225 79.946,239.254 80.265,239.289 79.875 C 239.324 79.485,239.324 78.848,239.289 78.458 C 239.254 78.069,239.225 78.387,239.225 79.167 M325.561 80.083 C 325.561 81.000,325.589 81.354,325.623 80.869 C 325.657 80.385,325.656 79.635,325.622 79.203 C 325.588 78.770,325.560 79.167,325.561 80.083 M314.379 79.667 C 314.379 80.079,314.411 80.248,314.451 80.042 C 314.491 79.835,314.491 79.498,314.451 79.292 C 314.411 79.085,314.379 79.254,314.379 79.667 M56.375 79.288 C 56.719 79.324,57.281 79.324,57.625 79.288 C 57.969 79.252,57.688 79.223,57.000 79.223 C 56.313 79.223,56.031 79.252,56.375 79.288 M51.542 79.455 C 51.885 79.491,52.448 79.491,52.792 79.455 C 53.135 79.419,52.854 79.389,52.167 79.389 C 51.479 79.389,51.198 79.419,51.542 79.455 M46.129 79.622 C 46.521 79.657,47.121 79.657,47.463 79.621 C 47.804 79.585,47.483 79.557,46.750 79.557 C 46.017 79.558,45.737 79.587,46.129 79.622 M355.045 80.167 C 355.045 80.579,355.078 80.748,355.118 80.542 C 355.157 80.335,355.157 79.998,355.118 79.792 C 355.078 79.585,355.045 79.754,355.045 80.167 M40.796 79.789 C 41.188 79.824,41.788 79.824,42.129 79.788 C 42.471 79.752,42.150 79.723,41.417 79.724 C 40.683 79.724,40.404 79.754,40.796 79.789 M36.272 79.965 C 36.227 80.038,36.466 80.071,36.803 80.039 C 37.834 79.941,37.956 79.873,37.135 79.853 C 36.705 79.842,36.316 79.893,36.272 79.965 M314.212 82.833 C 314.212 83.246,314.245 83.415,314.284 83.208 C 314.324 83.002,314.324 82.665,314.284 82.458 C 314.245 82.252,314.212 82.421,314.212 82.833 M286.069 85.333 C 286.069 86.938,286.094 87.594,286.124 86.792 C 286.155 85.990,286.155 84.677,286.124 83.875 C 286.094 83.073,286.069 83.729,286.069 85.333 M355.212 83.167 C 355.212 83.579,355.245 83.748,355.284 83.542 C 355.324 83.335,355.324 82.998,355.284 82.792 C 355.245 82.585,355.212 82.754,355.212 83.167 M239.058 85.667 C 239.058 86.446,239.087 86.765,239.122 86.375 C 239.157 85.985,239.157 85.348,239.122 84.958 C 239.087 84.569,239.058 84.887,239.058 85.667 M355.379 85.833 C 355.379 86.246,355.411 86.415,355.451 86.208 C 355.491 86.002,355.491 85.665,355.451 85.458 C 355.411 85.252,355.379 85.421,355.379 85.833 M314.045 86.167 C 314.045 86.579,314.078 86.748,314.118 86.542 C 314.157 86.335,314.157 85.998,314.118 85.792 C 314.078 85.585,314.045 85.754,314.045 86.167 M355.542 88.917 C 355.544 89.283,355.578 89.414,355.618 89.206 C 355.658 88.999,355.656 88.699,355.615 88.540 C 355.573 88.380,355.540 88.550,355.542 88.917 M313.879 89.667 C 313.879 90.079,313.911 90.248,313.951 90.042 C 313.991 89.835,313.991 89.498,313.951 89.292 C 313.911 89.085,313.879 89.254,313.879 89.667 M325.395 91.000 C 325.395 91.962,325.423 92.356,325.456 91.875 C 325.490 91.394,325.490 90.606,325.456 90.125 C 325.423 89.644,325.395 90.037,325.395 91.000 M238.889 92.000 C 238.889 92.688,238.919 92.969,238.955 92.625 C 238.991 92.281,238.991 91.719,238.955 91.375 C 238.919 91.031,238.889 91.313,238.889 92.000 M355.709 91.583 C 355.711 91.950,355.745 92.080,355.785 91.873 C 355.824 91.666,355.823 91.366,355.781 91.206 C 355.739 91.047,355.707 91.217,355.709 91.583 M354.208 92.615 C 354.369 92.657,354.631 92.657,354.792 92.615 C 354.952 92.573,354.821 92.539,354.500 92.539 C 354.179 92.539,354.048 92.573,354.208 92.615 M351.460 92.785 C 351.668 92.824,351.968 92.823,352.127 92.781 C 352.286 92.739,352.117 92.707,351.750 92.709 C 351.383 92.711,351.253 92.745,351.460 92.785 M348.627 92.951 C 348.834 92.991,349.134 92.990,349.294 92.948 C 349.453 92.906,349.283 92.874,348.917 92.875 C 348.550 92.877,348.420 92.911,348.627 92.951 M345.958 93.118 C 346.165 93.157,346.502 93.157,346.708 93.118 C 346.915 93.078,346.746 93.045,346.333 93.045 C 345.921 93.045,345.752 93.078,345.958 93.118 M343.125 93.284 C 343.331 93.324,343.669 93.324,343.875 93.284 C 344.081 93.245,343.912 93.212,343.500 93.212 C 343.087 93.212,342.919 93.245,343.125 93.284 M340.458 93.451 C 340.665 93.491,341.002 93.491,341.208 93.451 C 341.415 93.411,341.246 93.379,340.833 93.379 C 340.421 93.379,340.252 93.411,340.458 93.451 M337.794 93.618 C 338.001 93.658,338.301 93.656,338.460 93.615 C 338.620 93.573,338.450 93.540,338.083 93.542 C 337.717 93.544,337.586 93.578,337.794 93.618 M335.125 93.784 C 335.331 93.824,335.669 93.824,335.875 93.784 C 336.081 93.745,335.912 93.712,335.500 93.712 C 335.087 93.712,334.919 93.745,335.125 93.784 M332.375 93.948 C 332.535 93.990,332.798 93.990,332.958 93.948 C 333.119 93.906,332.987 93.872,332.667 93.872 C 332.346 93.872,332.215 93.906,332.375 93.948 M329.627 94.118 C 329.834 94.158,330.134 94.156,330.294 94.115 C 330.453 94.073,330.283 94.040,329.917 94.042 C 329.550 94.044,329.420 94.078,329.627 94.118 M327.042 94.282 C 327.202 94.323,327.465 94.323,327.625 94.282 C 327.785 94.240,327.654 94.205,327.333 94.205 C 327.012 94.205,326.881 94.240,327.042 94.282 M192.708 94.948 C 192.869 94.990,193.131 94.990,193.292 94.948 C 193.452 94.906,193.321 94.872,193.000 94.872 C 192.679 94.872,192.548 94.906,192.708 94.948 M125.708 96.290 C 126.327 96.322,127.340 96.322,127.958 96.290 C 128.577 96.258,128.071 96.232,126.833 96.232 C 125.596 96.232,125.090 96.258,125.708 96.290 " stroke="none" fill="#a0a0a0" fill-rule="evenodd"></path><path id="path3" d="M286.890 14.250 C 286.891 14.983,286.920 15.263,286.956 14.871 C 286.991 14.479,286.990 13.879,286.954 13.537 C 286.919 13.196,286.890 13.517,286.890 14.250 M326.375 25.750 C 326.377 26.117,326.411 26.247,326.451 26.040 C 326.491 25.832,326.490 25.532,326.448 25.373 C 326.406 25.214,326.374 25.383,326.375 25.750 M286.724 27.083 C 286.724 27.817,286.754 28.096,286.789 27.704 C 286.824 27.312,286.824 26.712,286.788 26.371 C 286.752 26.029,286.723 26.350,286.724 27.083 M226.539 27.333 C 226.539 27.654,226.573 27.785,226.615 27.625 C 226.657 27.465,226.657 27.202,226.615 27.042 C 226.573 26.881,226.539 27.012,226.539 27.333 M226.372 33.667 C 226.372 33.987,226.406 34.119,226.448 33.958 C 226.490 33.798,226.490 33.535,226.448 33.375 C 226.406 33.215,226.372 33.346,226.372 33.667 M326.209 36.083 C 326.211 36.450,326.245 36.580,326.285 36.373 C 326.324 36.166,326.323 35.866,326.281 35.706 C 326.239 35.547,326.207 35.717,326.209 36.083 M240.205 39.000 C 240.205 39.321,240.240 39.452,240.282 39.292 C 240.323 39.131,240.323 38.869,240.282 38.708 C 240.240 38.548,240.205 38.679,240.205 39.000 M96.709 40.250 C 96.711 40.617,96.745 40.747,96.785 40.540 C 96.824 40.332,96.823 40.032,96.781 39.873 C 96.739 39.714,96.707 39.883,96.709 40.250 M286.558 41.667 C 286.558 42.446,286.587 42.765,286.622 42.375 C 286.657 41.985,286.657 41.348,286.622 40.958 C 286.587 40.569,286.558 40.887,286.558 41.667 M240.042 45.917 C 240.044 46.283,240.078 46.414,240.118 46.206 C 240.158 45.999,240.156 45.699,240.115 45.540 C 240.073 45.380,240.040 45.550,240.042 45.917 M96.545 47.500 C 96.545 47.913,96.578 48.081,96.618 47.875 C 96.657 47.669,96.657 47.331,96.618 47.125 C 96.578 46.919,96.545 47.087,96.545 47.500 M239.879 52.000 C 239.879 52.413,239.911 52.581,239.951 52.375 C 239.991 52.169,239.991 51.831,239.951 51.625 C 239.911 51.419,239.879 51.587,239.879 52.000 M286.390 54.583 C 286.391 55.317,286.420 55.596,286.456 55.204 C 286.491 54.812,286.490 54.212,286.454 53.871 C 286.419 53.529,286.390 53.850,286.390 54.583 M96.372 55.333 C 96.372 55.654,96.406 55.785,96.448 55.625 C 96.490 55.465,96.490 55.202,96.448 55.042 C 96.406 54.881,96.372 55.012,96.372 55.333 M125.209 62.583 C 125.211 62.950,125.245 63.080,125.285 62.873 C 125.324 62.666,125.323 62.366,125.281 62.206 C 125.239 62.047,125.207 62.217,125.209 62.583 M325.705 67.667 C 325.705 67.987,325.740 68.119,325.782 67.958 C 325.823 67.798,325.823 67.535,325.782 67.375 C 325.740 67.215,325.705 67.346,325.705 67.667 M286.217 68.833 C 286.217 69.337,286.248 69.544,286.286 69.292 C 286.324 69.040,286.324 68.627,286.286 68.375 C 286.248 68.123,286.217 68.329,286.217 68.833 M325.542 77.917 C 325.544 78.283,325.578 78.414,325.618 78.206 C 325.658 77.999,325.656 77.699,325.615 77.540 C 325.573 77.380,325.540 77.550,325.542 77.917 M286.050 81.667 C 286.050 82.171,286.081 82.377,286.119 82.125 C 286.158 81.873,286.158 81.460,286.119 81.208 C 286.081 80.956,286.050 81.162,286.050 81.667 M325.375 88.750 C 325.377 89.117,325.411 89.247,325.451 89.040 C 325.491 88.832,325.490 88.532,325.448 88.373 C 325.406 88.214,325.374 88.383,325.375 88.750 M189.377 95.120 C 189.631 95.158,190.006 95.157,190.211 95.117 C 190.416 95.078,190.208 95.046,189.750 95.048 C 189.292 95.049,189.124 95.081,189.377 95.120 " stroke="none" fill="#7c7c7c" fill-rule="evenodd"></path><path id="path4" d="M318.209 6.250 C 318.211 6.617,318.245 6.747,318.285 6.540 C 318.324 6.332,318.323 6.032,318.281 5.873 C 318.239 5.714,318.207 5.883,318.209 6.250 M392.208 6.282 C 392.369 6.323,392.631 6.323,392.792 6.282 C 392.952 6.240,392.821 6.205,392.500 6.205 C 392.179 6.205,392.048 6.240,392.208 6.282 M257.375 6.448 C 257.535 6.490,257.798 6.490,257.958 6.448 C 258.119 6.406,257.987 6.372,257.667 6.372 C 257.346 6.372,257.215 6.406,257.375 6.448 M394.792 6.451 C 394.998 6.491,395.335 6.491,395.542 6.451 C 395.748 6.411,395.579 6.379,395.167 6.379 C 394.754 6.379,394.585 6.411,394.792 6.451 M397.294 6.618 C 397.501 6.658,397.801 6.656,397.960 6.615 C 398.120 6.573,397.950 6.540,397.583 6.542 C 397.217 6.544,397.086 6.578,397.294 6.618 M253.375 6.782 C 253.535 6.823,253.798 6.823,253.958 6.782 C 254.119 6.740,253.987 6.705,253.667 6.705 C 253.346 6.705,253.215 6.740,253.375 6.782 M251.375 6.948 C 251.535 6.990,251.798 6.990,251.958 6.948 C 252.119 6.906,251.987 6.872,251.667 6.872 C 251.346 6.872,251.215 6.906,251.375 6.948 M249.460 7.118 C 249.668 7.158,249.968 7.156,250.127 7.115 C 250.286 7.073,250.117 7.040,249.750 7.042 C 249.383 7.044,249.253 7.078,249.460 7.118 M318.042 9.417 C 318.044 9.783,318.078 9.914,318.118 9.706 C 318.158 9.499,318.156 9.199,318.115 9.040 C 318.073 8.880,318.040 9.050,318.042 9.417 M286.898 11.000 C 286.898 12.146,286.924 12.615,286.957 12.042 C 286.989 11.469,286.989 10.531,286.957 9.958 C 286.924 9.385,286.898 9.854,286.898 11.000 M368.039 9.667 C 368.039 9.987,368.073 10.119,368.115 9.958 C 368.157 9.798,368.157 9.535,368.115 9.375 C 368.073 9.215,368.039 9.346,368.039 9.667 M97.539 10.833 C 97.539 11.154,97.573 11.285,97.615 11.125 C 97.657 10.965,97.657 10.702,97.615 10.542 C 97.573 10.381,97.539 10.512,97.539 10.833 M161.381 13.083 C 161.382 13.542,161.415 13.709,161.453 13.456 C 161.491 13.203,161.490 12.828,161.451 12.623 C 161.411 12.418,161.380 12.625,161.381 13.083 M317.872 12.833 C 317.872 13.154,317.906 13.285,317.948 13.125 C 317.990 12.965,317.990 12.702,317.948 12.542 C 317.906 12.381,317.872 12.512,317.872 12.833 M128.048 13.250 C 128.049 13.708,128.081 13.876,128.120 13.623 C 128.158 13.369,128.157 12.994,128.117 12.789 C 128.078 12.584,128.046 12.792,128.048 13.250 M326.553 13.833 C 326.553 14.429,326.584 14.673,326.621 14.375 C 326.658 14.077,326.658 13.590,326.621 13.292 C 326.584 12.994,326.553 13.237,326.553 13.833 M226.881 14.417 C 226.882 14.875,226.915 15.043,226.953 14.789 C 226.991 14.536,226.990 14.161,226.951 13.956 C 226.911 13.751,226.880 13.958,226.881 14.417 M132.383 15.000 C 132.383 15.504,132.415 15.710,132.453 15.458 C 132.491 15.206,132.491 14.794,132.453 14.542 C 132.415 14.290,132.383 14.496,132.383 15.000 M367.875 15.750 C 367.877 16.117,367.911 16.247,367.951 16.040 C 367.991 15.832,367.990 15.532,367.948 15.373 C 367.906 15.214,367.874 15.383,367.875 15.750 M127.883 16.167 C 127.883 16.671,127.915 16.877,127.953 16.625 C 127.991 16.373,127.991 15.960,127.953 15.708 C 127.915 15.456,127.883 15.662,127.883 16.167 M317.705 16.000 C 317.705 16.321,317.740 16.452,317.782 16.292 C 317.823 16.131,317.823 15.869,317.782 15.708 C 317.740 15.548,317.705 15.679,317.705 16.000 M97.375 16.250 C 97.377 16.617,97.411 16.747,97.451 16.540 C 97.491 16.332,97.490 16.032,97.448 15.873 C 97.406 15.714,97.374 15.883,97.375 16.250 M161.550 17.333 C 161.550 17.837,161.581 18.044,161.619 17.792 C 161.658 17.540,161.658 17.127,161.619 16.875 C 161.581 16.623,161.550 16.829,161.550 17.333 M132.550 18.167 C 132.550 18.671,132.581 18.877,132.619 18.625 C 132.658 18.373,132.658 17.960,132.619 17.708 C 132.581 17.456,132.550 17.662,132.550 18.167 M127.712 19.333 C 127.712 19.746,127.745 19.915,127.784 19.708 C 127.824 19.502,127.824 19.165,127.784 18.958 C 127.745 18.752,127.712 18.921,127.712 19.333 M317.539 19.333 C 317.539 19.654,317.573 19.785,317.615 19.625 C 317.657 19.465,317.657 19.202,317.615 19.042 C 317.573 18.881,317.539 19.012,317.539 19.333 M226.714 20.083 C 226.716 20.542,226.748 20.709,226.786 20.456 C 226.825 20.203,226.824 19.828,226.784 19.623 C 226.744 19.418,226.713 19.625,226.714 20.083 M132.717 21.167 C 132.717 21.671,132.748 21.877,132.786 21.625 C 132.824 21.373,132.824 20.960,132.786 20.708 C 132.748 20.456,132.717 20.662,132.717 21.167 M286.733 23.417 C 286.734 24.792,286.759 25.332,286.791 24.617 C 286.822 23.903,286.822 22.778,286.790 22.117 C 286.759 21.457,286.733 22.042,286.733 23.417 M97.212 21.833 C 97.212 22.246,97.245 22.415,97.284 22.208 C 97.324 22.002,97.324 21.665,97.284 21.458 C 97.245 21.252,97.212 21.421,97.212 21.833 M367.705 21.667 C 367.705 21.988,367.740 22.119,367.782 21.958 C 367.823 21.798,367.823 21.535,367.782 21.375 C 367.740 21.215,367.705 21.346,367.705 21.667 M127.539 22.500 C 127.539 22.821,127.573 22.952,127.615 22.792 C 127.657 22.631,127.657 22.369,127.615 22.208 C 127.573 22.048,127.539 22.179,127.539 22.500 M132.879 24.333 C 132.879 24.746,132.911 24.915,132.951 24.708 C 132.991 24.502,132.991 24.165,132.951 23.958 C 132.911 23.752,132.879 23.921,132.879 24.333 M326.381 24.417 C 326.382 24.875,326.415 25.043,326.453 24.789 C 326.491 24.536,326.490 24.161,326.451 23.956 C 326.411 23.751,326.380 23.958,326.381 24.417 M127.375 25.417 C 127.377 25.783,127.411 25.914,127.451 25.706 C 127.491 25.499,127.490 25.199,127.448 25.040 C 127.406 24.880,127.374 25.050,127.375 25.417 M226.552 25.917 C 226.553 26.467,226.584 26.672,226.621 26.372 C 226.658 26.072,226.657 25.622,226.619 25.372 C 226.581 25.122,226.551 25.367,226.552 25.917 M398.705 26.833 C 398.705 27.154,398.740 27.285,398.782 27.125 C 398.823 26.965,398.823 26.702,398.782 26.542 C 398.740 26.381,398.705 26.512,398.705 26.833 M97.045 27.333 C 97.045 27.746,97.078 27.915,97.118 27.708 C 97.157 27.502,97.157 27.165,97.118 26.958 C 97.078 26.752,97.045 26.921,97.045 27.333 M133.045 27.333 C 133.045 27.746,133.078 27.915,133.118 27.708 C 133.157 27.502,133.157 27.165,133.118 26.958 C 133.078 26.752,133.045 26.921,133.045 27.333 M127.205 28.500 C 127.205 28.821,127.240 28.952,127.282 28.792 C 127.323 28.631,127.323 28.369,127.282 28.208 C 127.240 28.048,127.205 28.179,127.205 28.500 M201.208 28.448 C 201.369 28.490,201.631 28.490,201.792 28.448 C 201.952 28.406,201.821 28.372,201.500 28.372 C 201.179 28.372,201.048 28.406,201.208 28.448 M398.539 29.500 C 398.539 29.821,398.573 29.952,398.615 29.792 C 398.657 29.631,398.657 29.369,398.615 29.208 C 398.573 29.048,398.539 29.179,398.539 29.500 M133.205 30.500 C 133.205 30.821,133.240 30.952,133.282 30.792 C 133.323 30.631,133.323 30.369,133.282 30.208 C 133.240 30.048,133.205 30.179,133.205 30.500 M226.388 32.083 C 226.389 32.725,226.419 32.967,226.455 32.621 C 226.491 32.275,226.490 31.750,226.454 31.455 C 226.417 31.159,226.387 31.442,226.388 32.083 M398.379 32.500 C 398.379 32.912,398.411 33.081,398.451 32.875 C 398.491 32.669,398.491 32.331,398.451 32.125 C 398.411 31.919,398.379 32.087,398.379 32.500 M96.881 32.917 C 96.882 33.375,96.915 33.543,96.953 33.289 C 96.991 33.036,96.990 32.661,96.951 32.456 C 96.911 32.251,96.880 32.458,96.881 32.917 M162.039 32.667 C 162.039 32.987,162.073 33.119,162.115 32.958 C 162.157 32.798,162.157 32.535,162.115 32.375 C 162.073 32.215,162.039 32.346,162.039 32.667 M133.375 33.417 C 133.377 33.783,133.411 33.914,133.451 33.706 C 133.491 33.499,133.490 33.199,133.448 33.040 C 133.406 32.880,133.374 33.050,133.375 33.417 M164.881 33.583 C 164.882 34.042,164.915 34.209,164.953 33.956 C 164.991 33.703,164.990 33.328,164.951 33.123 C 164.911 32.918,164.880 33.125,164.881 33.583 M367.372 33.833 C 367.372 34.154,367.406 34.285,367.448 34.125 C 367.490 33.965,367.490 33.702,367.448 33.542 C 367.406 33.381,367.372 33.512,367.372 33.833 M326.214 34.750 C 326.216 35.208,326.248 35.376,326.286 35.123 C 326.325 34.869,326.324 34.494,326.284 34.289 C 326.244 34.084,326.213 34.292,326.214 34.750 M286.569 37.250 C 286.570 38.992,286.594 39.682,286.624 38.783 C 286.654 37.884,286.654 36.459,286.624 35.616 C 286.594 34.773,286.569 35.508,286.569 37.250 M398.217 35.333 C 398.217 35.837,398.248 36.044,398.286 35.792 C 398.324 35.540,398.324 35.127,398.286 34.875 C 398.248 34.623,398.217 34.829,398.217 35.333 M231.042 34.782 C 231.202 34.823,231.465 34.823,231.625 34.782 C 231.785 34.740,231.654 34.705,231.333 34.705 C 231.012 34.705,230.881 34.740,231.042 34.782 M229.375 34.948 C 229.535 34.990,229.798 34.990,229.958 34.948 C 230.119 34.906,229.987 34.872,229.667 34.872 C 229.346 34.872,229.215 34.906,229.375 34.948 M133.539 36.500 C 133.539 36.821,133.573 36.952,133.615 36.792 C 133.657 36.631,133.657 36.369,133.615 36.208 C 133.573 36.048,133.539 36.179,133.539 36.500 M240.223 37.333 C 240.223 38.021,240.252 38.302,240.288 37.958 C 240.324 37.615,240.324 37.052,240.288 36.708 C 240.252 36.365,240.223 36.646,240.223 37.333 M164.879 37.667 C 164.879 38.079,164.911 38.248,164.951 38.042 C 164.991 37.835,164.991 37.498,164.951 37.292 C 164.911 37.085,164.879 37.254,164.879 37.667 M398.050 38.000 C 398.050 38.504,398.081 38.710,398.119 38.458 C 398.158 38.206,398.158 37.794,398.119 37.542 C 398.081 37.290,398.050 37.496,398.050 38.000 M96.717 38.833 C 96.717 39.337,96.748 39.544,96.786 39.292 C 96.824 39.040,96.824 38.627,96.786 38.375 C 96.748 38.123,96.717 38.329,96.717 38.833 M162.205 38.833 C 162.205 39.154,162.240 39.285,162.282 39.125 C 162.323 38.965,162.323 38.702,162.282 38.542 C 162.240 38.381,162.205 38.512,162.205 38.833 M397.881 40.917 C 397.882 41.375,397.915 41.543,397.953 41.289 C 397.991 41.036,397.990 40.661,397.951 40.456 C 397.911 40.251,397.880 40.458,397.881 40.917 M240.060 43.833 C 240.060 44.704,240.088 45.060,240.123 44.625 C 240.157 44.190,240.157 43.477,240.123 43.042 C 240.088 42.606,240.060 42.962,240.060 43.833 M397.714 43.583 C 397.716 44.042,397.748 44.209,397.786 43.956 C 397.825 43.703,397.824 43.328,397.784 43.123 C 397.744 42.918,397.713 43.125,397.714 43.583 M326.052 45.417 C 326.053 45.967,326.084 46.172,326.121 45.872 C 326.158 45.572,326.157 45.122,326.119 44.872 C 326.081 44.622,326.051 44.867,326.052 45.417 M96.553 45.833 C 96.553 46.429,96.584 46.673,96.621 46.375 C 96.658 46.077,96.658 45.590,96.621 45.292 C 96.584 44.994,96.553 45.237,96.553 45.833 M162.372 45.333 C 162.372 45.654,162.406 45.785,162.448 45.625 C 162.490 45.465,162.490 45.202,162.448 45.042 C 162.406 44.881,162.372 45.012,162.372 45.333 M397.542 46.583 C 397.544 46.950,397.578 47.080,397.618 46.873 C 397.658 46.666,397.656 46.366,397.615 46.206 C 397.573 46.047,397.540 46.217,397.542 46.583 M286.403 50.167 C 286.403 51.954,286.428 52.685,286.458 51.792 C 286.488 50.898,286.488 49.435,286.458 48.542 C 286.428 47.648,286.403 48.379,286.403 50.167 M239.892 49.917 C 239.892 50.742,239.920 51.100,239.955 50.713 C 239.990 50.327,239.990 49.652,239.956 49.213 C 239.922 48.775,239.893 49.092,239.892 49.917 M397.375 49.250 C 397.377 49.617,397.411 49.747,397.451 49.540 C 397.491 49.332,397.490 49.032,397.448 48.873 C 397.406 48.714,397.374 48.883,397.375 49.250 M397.205 52.000 C 397.205 52.321,397.240 52.452,397.282 52.292 C 397.323 52.131,397.323 51.869,397.282 51.708 C 397.240 51.548,397.205 51.679,397.205 52.000 M162.550 53.333 C 162.550 53.837,162.581 54.044,162.619 53.792 C 162.658 53.540,162.658 53.127,162.619 52.875 C 162.581 52.623,162.550 52.829,162.550 53.333 M96.387 53.833 C 96.387 54.429,96.417 54.673,96.454 54.375 C 96.491 54.077,96.491 53.590,96.454 53.292 C 96.417 52.994,96.387 53.237,96.387 53.833 M325.887 55.667 C 325.887 56.262,325.917 56.506,325.954 56.208 C 325.991 55.910,325.991 55.423,325.954 55.125 C 325.917 54.827,325.887 55.071,325.887 55.667 M239.728 56.667 C 239.728 57.629,239.756 58.023,239.790 57.542 C 239.823 57.060,239.823 56.273,239.790 55.792 C 239.756 55.310,239.728 55.704,239.728 56.667 M96.237 61.917 C 96.237 63.750,96.261 64.523,96.291 63.634 C 96.321 62.745,96.321 61.245,96.291 60.301 C 96.261 59.356,96.237 60.083,96.237 61.917 M286.238 64.417 C 286.238 66.433,286.262 67.235,286.291 66.199 C 286.320 65.163,286.320 63.513,286.291 62.532 C 286.262 61.552,286.238 62.400,286.238 64.417 M239.562 62.833 C 239.562 63.796,239.589 64.190,239.623 63.708 C 239.657 63.227,239.657 62.440,239.623 61.958 C 239.589 61.477,239.562 61.871,239.562 62.833 M228.539 63.333 C 228.539 63.654,228.573 63.785,228.615 63.625 C 228.657 63.465,228.657 63.202,228.615 63.042 C 228.573 62.881,228.539 63.012,228.539 63.333 M198.042 65.917 C 198.044 66.283,198.078 66.414,198.118 66.206 C 198.158 65.999,198.156 65.699,198.115 65.540 C 198.073 65.380,198.040 65.550,198.042 65.917 M325.717 66.333 C 325.717 66.837,325.748 67.044,325.786 66.792 C 325.824 66.540,325.824 66.127,325.786 65.875 C 325.748 65.623,325.717 65.829,325.717 66.333 M315.042 68.250 C 315.044 68.617,315.078 68.747,315.118 68.540 C 315.158 68.332,315.156 68.032,315.115 67.873 C 315.073 67.714,315.040 67.883,315.042 68.250 M239.396 69.583 C 239.396 70.592,239.424 70.983,239.457 70.452 C 239.490 69.922,239.490 69.097,239.456 68.619 C 239.422 68.141,239.395 68.575,239.396 69.583 M187.792 70.951 C 187.998 70.991,188.335 70.991,188.542 70.951 C 188.748 70.911,188.579 70.879,188.167 70.879 C 187.754 70.879,187.585 70.911,187.792 70.951 M314.875 71.417 C 314.877 71.783,314.911 71.914,314.951 71.706 C 314.991 71.499,314.990 71.199,314.948 71.040 C 314.906 70.880,314.874 71.050,314.875 71.417 M286.071 77.250 C 286.071 79.267,286.095 80.069,286.125 79.032 C 286.154 77.996,286.154 76.346,286.124 75.366 C 286.095 74.385,286.071 75.233,286.071 77.250 M239.229 75.750 C 239.229 76.758,239.257 77.149,239.290 76.619 C 239.323 76.088,239.323 75.263,239.289 74.786 C 239.256 74.308,239.229 74.742,239.229 75.750 M314.717 75.000 C 314.717 75.504,314.748 75.710,314.786 75.458 C 314.824 75.206,314.824 74.794,314.786 74.542 C 314.748 74.290,314.717 74.496,314.717 75.000 M325.548 76.583 C 325.549 77.042,325.581 77.209,325.620 76.956 C 325.658 76.703,325.657 76.328,325.617 76.123 C 325.578 75.918,325.546 76.125,325.548 76.583 M314.550 78.167 C 314.550 78.671,314.581 78.877,314.619 78.625 C 314.658 78.373,314.658 77.960,314.619 77.708 C 314.581 77.456,314.550 77.662,314.550 78.167 M54.292 79.451 C 54.498 79.491,54.835 79.491,55.042 79.451 C 55.248 79.411,55.079 79.379,54.667 79.379 C 54.254 79.379,54.085 79.411,54.292 79.451 M49.211 79.620 C 49.464 79.658,49.839 79.657,50.044 79.617 C 50.249 79.578,50.042 79.546,49.583 79.548 C 49.125 79.549,48.957 79.581,49.211 79.620 M43.961 79.787 C 44.261 79.825,44.711 79.824,44.961 79.786 C 45.212 79.748,44.967 79.717,44.417 79.718 C 43.867 79.719,43.662 79.750,43.961 79.787 M39.128 79.954 C 39.428 79.991,39.878 79.990,40.128 79.952 C 40.378 79.914,40.133 79.884,39.583 79.885 C 39.033 79.886,38.828 79.917,39.128 79.954 M239.061 82.250 C 239.061 83.167,239.089 83.520,239.123 83.036 C 239.157 82.552,239.156 81.802,239.122 81.369 C 239.088 80.937,239.060 81.333,239.061 82.250 M314.385 81.583 C 314.386 82.133,314.417 82.338,314.454 82.039 C 314.491 81.739,314.490 81.289,314.452 81.039 C 314.414 80.788,314.384 81.033,314.385 81.583 M355.209 81.417 C 355.211 81.783,355.245 81.914,355.285 81.706 C 355.324 81.499,355.323 81.199,355.281 81.040 C 355.239 80.880,355.207 81.050,355.209 81.417 M220.662 84.292 L 219.583 85.417 220.708 84.338 C 221.327 83.745,221.833 83.239,221.833 83.213 C 221.833 83.090,221.664 83.247,220.662 84.292 M355.372 84.167 C 355.372 84.487,355.406 84.619,355.448 84.458 C 355.490 84.298,355.490 84.035,355.448 83.875 C 355.406 83.715,355.372 83.846,355.372 84.167 M314.218 84.750 C 314.219 85.300,314.250 85.505,314.287 85.205 C 314.325 84.906,314.324 84.456,314.286 84.205 C 314.248 83.955,314.217 84.200,314.218 84.750 M153.662 87.292 L 152.583 88.417 153.708 87.338 C 154.327 86.745,154.833 86.239,154.833 86.213 C 154.833 86.090,154.664 86.247,153.662 87.292 M325.387 87.167 C 325.387 87.763,325.417 88.006,325.454 87.708 C 325.491 87.410,325.491 86.923,325.454 86.625 C 325.417 86.327,325.387 86.571,325.387 87.167 M355.542 87.083 C 355.544 87.450,355.578 87.580,355.618 87.373 C 355.658 87.166,355.656 86.866,355.615 86.706 C 355.573 86.547,355.540 86.717,355.542 87.083 M104.917 88.333 C 105.461 88.883,105.944 89.333,105.990 89.333 C 106.035 89.333,105.628 88.883,105.083 88.333 C 104.539 87.783,104.056 87.333,104.010 87.333 C 103.965 87.333,104.372 87.783,104.917 88.333 M314.050 88.167 C 314.050 88.671,314.081 88.877,314.119 88.625 C 314.158 88.373,314.158 87.960,314.119 87.708 C 314.081 87.456,314.050 87.662,314.050 88.167 M238.889 89.000 C 238.889 89.688,238.919 89.969,238.955 89.625 C 238.991 89.281,238.991 88.719,238.955 88.375 C 238.919 88.031,238.889 88.313,238.889 89.000 M285.911 91.167 L 285.917 94.417 286.333 94.433 C 286.689 94.446,286.695 94.439,286.379 94.380 C 286.012 94.313,286.006 94.271,285.956 91.114 L 285.905 87.917 285.911 91.167 M355.709 89.750 C 355.711 90.117,355.745 90.247,355.785 90.040 C 355.824 89.832,355.823 89.532,355.781 89.373 C 355.739 89.214,355.707 89.383,355.709 89.750 M355.833 92.210 C 355.833 92.356,355.702 92.510,355.542 92.552 C 355.268 92.623,355.269 92.629,355.547 92.647 C 355.848 92.667,356.127 92.239,355.937 92.048 C 355.880 91.991,355.833 92.064,355.833 92.210 M339.375 93.615 C 339.535 93.657,339.798 93.657,339.958 93.615 C 340.119 93.573,339.987 93.539,339.667 93.539 C 339.346 93.539,339.215 93.573,339.375 93.615 M336.875 93.782 C 337.035 93.823,337.298 93.823,337.458 93.782 C 337.619 93.740,337.487 93.705,337.167 93.705 C 336.846 93.705,336.715 93.740,336.875 93.782 M334.127 93.951 C 334.334 93.991,334.634 93.990,334.794 93.948 C 334.953 93.906,334.783 93.874,334.417 93.875 C 334.050 93.877,333.920 93.911,334.127 93.951 M238.708 94.167 C 238.746 94.308,238.988 94.428,239.263 94.443 C 239.682 94.466,239.692 94.458,239.333 94.385 C 239.104 94.338,238.855 94.214,238.779 94.108 C 238.687 93.980,238.664 94.000,238.708 94.167 M331.125 94.118 C 331.331 94.157,331.669 94.157,331.875 94.118 C 332.081 94.078,331.912 94.045,331.500 94.045 C 331.087 94.045,330.919 94.078,331.125 94.118 M328.544 94.286 C 328.797 94.325,329.172 94.324,329.377 94.284 C 329.582 94.244,329.375 94.213,328.917 94.214 C 328.458 94.216,328.291 94.248,328.544 94.286 M325.711 94.453 C 325.964 94.491,326.339 94.490,326.544 94.451 C 326.749 94.411,326.542 94.380,326.083 94.381 C 325.625 94.382,325.457 94.415,325.711 94.453 M187.628 95.121 C 187.928 95.158,188.378 95.157,188.628 95.119 C 188.878 95.081,188.633 95.051,188.083 95.052 C 187.533 95.053,187.328 95.084,187.628 95.121 M190.877 95.120 C 191.131 95.158,191.506 95.157,191.711 95.117 C 191.916 95.078,191.708 95.046,191.250 95.048 C 190.792 95.049,190.624 95.081,190.877 95.120 " stroke="none" fill="#747474" fill-rule="evenodd"></path></g></svg>